<?xml version="1.0" encoding="utf-8"?>
<!-- Generator: Adobe Illustrator 27.5.0, SVG Export Plug-In . SVG Version: 6.00 Build 0)  -->
<svg version="1.1" xmlns="http://www.w3.org/2000/svg" xmlns:xlink="http://www.w3.org/1999/xlink" x="0px" y="0px"
	 viewBox="0 0 750 500" style="enable-background:new 0 0 750 500;" xml:space="preserve">
<g id="Background_Simple">
	<g>
		<path style="fill:#92E3A9;" d="M560.846,100.319c0,0-59.861-68.764-117.539-80.251C385.629,8.581,301.388,28.897,269.68,70.072
			s-104.767,23.226-167.829,57.687C38.79,162.22,5.341,228.723,20.722,288.312c15.381,59.589,54.983,72.058,74.978,98.622
			c19.995,26.564,106.897,101.229,215.332,91.178c108.435-10.051,125.354-44.512,182.263-35.179
			c56.909,9.333,144.58,38.769,195.337-22.974c50.757-61.743,7.178-61.575,27.174-121.164
			c19.995-59.589,16.395-108.653-8.983-148.857C681.444,109.733,580.072,119.703,560.846,100.319z"/>
		<path style="opacity:0.7;fill:#FFFFFF;" d="M560.846,100.319c0,0-59.861-68.764-117.539-80.251
			C385.629,8.581,301.388,28.897,269.68,70.072s-104.767,23.226-167.829,57.687C38.79,162.22,5.341,228.723,20.722,288.312
			c15.381,59.589,54.983,72.058,74.978,98.622c19.995,26.564,106.897,101.229,215.332,91.178
			c108.435-10.051,125.354-44.512,182.263-35.179c56.909,9.333,144.58,38.769,195.337-22.974
			c50.757-61.743,7.178-61.575,27.174-121.164c19.995-59.589,16.395-108.653-8.983-148.857
			C681.444,109.733,580.072,119.703,560.846,100.319z"/>
	</g>
</g>
<g id="Clouds">
	<path style="fill:none;stroke:#263238;stroke-linecap:round;stroke-linejoin:round;stroke-miterlimit:10;" d="M440.461,85.076
		c0,0-2.189-15.325-20.433-20.433c-18.244-5.108-26.271,20.433-30.649,22.622C385,89.455,378.432,74.86,366.756,76.319
		c-11.676,1.459-12.406,16.784-14.595,18.973c-2.189,2.189-8.757-5.838-15.325-1.46c-6.568,4.379-8.027,9.487-8.027,9.487
		l-15.325,5.838h167.113c0,0-1.46-16.054-12.406-21.892c-10.946-5.838-16.784,0.73-20.433,1.459
		C444.109,89.455,440.461,85.076,440.461,85.076z"/>
	<path style="fill:none;stroke:#263238;stroke-linecap:round;stroke-linejoin:round;stroke-miterlimit:10;" d="M140.057,55.58
		c0,0-1.435-10.046-13.394-13.395c-11.96-3.349-17.222,13.395-20.092,14.83c-2.87,1.435-7.176-8.132-14.83-7.176
		c-7.654,0.957-8.132,11.003-9.567,12.438c-1.435,1.435-5.741-3.827-10.046-0.957c-4.305,2.87-5.262,6.219-5.262,6.219
		l-10.046,3.827h109.548c0,0-0.957-10.524-8.132-14.351c-7.176-3.827-11.003,0.478-13.395,0.957
		C142.448,58.45,140.057,55.58,140.057,55.58z"/>
	<path style="fill:none;stroke:#263238;stroke-linecap:round;stroke-linejoin:round;stroke-miterlimit:10;" d="M641.743,59.977
		c0,0-1.035-7.247-9.663-9.663c-8.628-2.416-12.424,9.663-14.495,10.698c-2.071,1.035-5.177-5.867-10.699-5.177
		c-5.522,0.69-5.867,7.938-6.902,8.973c-1.035,1.035-4.141-2.761-7.247-0.69c-3.106,2.071-3.796,4.486-3.796,4.486l-7.247,2.761
		h79.03c0,0-0.69-7.592-5.867-10.353c-5.177-2.761-7.938,0.345-9.663,0.69C643.469,62.048,641.743,59.977,641.743,59.977z"/>
</g>
<g id="Mountains">
	<g>
		<path style="opacity:0.21;" d="M223.991,51.788l5.153,36.074l-8.589,17.178c0,0,4.295,16.319,5.154,18.896
			c0.859,2.577,12.025,17.178,12.025,12.025c0-5.153-4.295-38.651,3.436-35.215c7.73,3.436,12.884,31.78,12.884,31.78
			s24.05,99.634,25.767,104.787c1.718,5.153-0.859,12.884-2.577,16.319c-1.718,3.436-18.858,40.857-15.423,34.844
			c3.436-6.012,136.529-69.201,136.529-69.201L287.107,105.26C287.107,105.26,232.58,51.788,223.991,51.788z"/>
		<path style="opacity:0.21;" d="M606.206,93.016c0,0-0.061,11.536,2.829,15.39c2.89,3.854,20.233,30.831,21.197,40.466
			c0.963,9.635-12.525-1.927-15.416-0.964c-2.891,0.964-8.671,5.781-5.781,11.562c2.89,5.781,32.758,56.845,33.722,59.736
			c0.964,2.89,11.562,27.941,16.379,27.941c4.817,0,13.489-4.817,11.562-12.525c-1.927-7.708-7.708-31.795-7.708-31.795
			l28.904,28.904c0,0,19.269,13.489,25.05,13.489c5.781,0,12.525,2.857,9.584-5.967c-2.941-8.824-7.353-16.668-7.353-16.668
			l2.451-7.353l-85.299-95.103C636.328,120.128,614.813,93.356,606.206,93.016z"/>
		<path style="fill:none;stroke:#263238;stroke-linecap:round;stroke-linejoin:round;stroke-miterlimit:10;" d="M10.981,199.521
			c0,0,199.267-146.874,213.01-147.733c13.743-0.859,174.359,167.488,174.359,167.488S594.182,91.298,606.206,93.016
			c12.025,1.718,133.131,141.72,133.131,141.72"/>
	</g>
</g>
<g id="Trees">
	<g>
		<path style="fill:#92E3A9;" d="M271.652,182.982c-47.768,0.077-86.468,36.856-86.468,82.218c0,0.227,0.001,0.454,0.003,0.68
			c0.212,24.676,20.734,44.5,45.403,43.885c3.832-0.096,7.918,0.101,12.005,0.76c8.176,1.319,14.505,6.114,18.795,11.657
			c2.371,3.063,5.933,4.996,9.806,5.01c0.152,0.001,0.304,0.001,0.456,0.001c0.152,0,0.304-0.001,0.456-0.001
			c3.873-0.014,7.436-1.948,9.806-5.01c4.291-5.543,10.62-10.339,18.795-11.657c4.087-0.659,8.173-0.856,12.005-0.76
			c24.669,0.615,45.191-19.209,45.403-43.885c0.002-0.226,0.003-0.453,0.003-0.68C358.119,219.838,319.42,183.06,271.652,182.982z"
			/>
		<path style="opacity:0.21;fill:#FFFFFF;" d="M271.652,182.982c-47.768,0.077-86.468,36.856-86.468,82.218
			c0,0.227,0.001,0.454,0.003,0.68c0.212,24.676,20.734,44.5,45.403,43.885c3.832-0.096,7.918,0.101,12.005,0.76
			c8.176,1.319,14.505,6.114,18.795,11.657c2.371,3.063,5.933,4.996,9.806,5.01c0.152,0.001,0.304,0.001,0.456,0.001
			c0.152,0,0.304-0.001,0.456-0.001c3.873-0.014,7.436-1.948,9.806-5.01c4.291-5.543,10.62-10.339,18.795-11.657
			c4.087-0.659,8.173-0.856,12.005-0.76c24.669,0.615,45.191-19.209,45.403-43.885c0.002-0.226,0.003-0.453,0.003-0.68
			C358.119,219.838,319.42,183.06,271.652,182.982z"/>
		<polygon style="fill:#B0B0B0;" points="301.562,284.024 282.435,288.16 305.26,259.722 274.09,288.779 273.898,290.793 
			272.505,260.25 270.304,308.491 239.569,279.84 262.394,308.278 243.267,304.142 267.447,314.573 269.888,317.614 
			265.637,437.997 279.373,437.997 274.243,298.366 277.383,294.455 		"/>
		<g>
			<path style="fill:#FFFFFF;" d="M254.462,256.007c0,0-1.95-5.571-6.128-7.521c-4.178-1.95-6.964-2.507-6.964-2.507
				S243.598,257.4,254.462,256.007z"/>
			<path style="fill:#FFFFFF;" d="M223.725,234.137c0,0-1.95-5.571-6.128-7.521c-4.178-1.95-6.964-2.507-6.964-2.507
				S212.862,235.53,223.725,234.137z"/>
			<path style="fill:#FFFFFF;" d="M259.508,241.2c0,0-0.321-5.893-3.791-8.93c-3.47-3.036-5.99-4.347-5.99-4.347
				S248.686,239.512,259.508,241.2z"/>
			<path style="fill:#FFFFFF;" d="M305.935,286.329c0,0-3.738-4.568-8.331-4.971c-4.593-0.403-7.401,0.026-7.401,0.026
				S296.203,291.354,305.935,286.329z"/>
			<path style="fill:#FFFFFF;" d="M309.481,300.81c0,0-3.738-4.568-8.331-4.971c-4.593-0.403-7.401,0.026-7.401,0.026
				S299.749,305.835,309.481,300.81z"/>
			<path style="fill:#FFFFFF;" d="M232.988,284.933c0,0,3.738-4.568,8.331-4.971c4.593-0.403,7.401,0.026,7.401,0.026
				S242.72,289.958,232.988,284.933z"/>
			<path style="fill:#FFFFFF;" d="M217.62,297.937c0,0,3.738-4.568,8.331-4.971c4.593-0.403,7.401,0.026,7.401,0.026
				S227.352,302.962,217.62,297.937z"/>
			<path style="fill:#FFFFFF;" d="M243.074,236.186c0,0-0.321-5.894-3.791-8.93c-3.47-3.036-5.99-4.347-5.99-4.347
				S232.252,234.498,243.074,236.186z"/>
			<path style="fill:#FFFFFF;" d="M297.669,239.529c0,0,0.321-5.894,3.791-8.93c3.47-3.036,5.99-4.347,5.99-4.347
				S308.491,237.841,297.669,239.529z"/>
			<path style="fill:#FFFFFF;" d="M270.489,231.947c0,0,3.404-4.822,2.565-9.356c-0.839-4.534-2.002-7.125-2.002-7.125
				S263.047,223.911,270.489,231.947z"/>
			<path style="fill:#FFFFFF;" d="M274.28,254.136c0,0,0.553-5.876-2.431-9.392c-2.983-3.516-5.282-5.184-5.282-5.184
				S263.826,250.868,274.28,254.136z"/>
			<path style="fill:#FFFFFF;" d="M260.26,227.291c0,0,1.762-5.633-0.425-9.692c-2.187-4.059-4.089-6.169-4.089-6.169
				S250.714,221.922,260.26,227.291z"/>
			<path style="fill:#FFFFFF;" d="M245.692,217.531c0,0,0.715-5.859-2.171-9.455c-2.885-3.596-5.137-5.328-5.137-5.328
				S235.333,213.977,245.692,217.531z"/>
			<path style="fill:#FFFFFF;" d="M264.717,271.023c0,0,1.762-5.633-0.425-9.692c-2.187-4.059-4.089-6.169-4.089-6.169
				S255.171,265.654,264.717,271.023z"/>
			<path style="fill:#FFFFFF;" d="M277.92,264.408c0,0,4.986-3.159,5.94-7.67c0.954-4.511,0.867-7.35,0.867-7.35
				S274.106,254.141,277.92,264.408z"/>
			<path style="fill:#FFFFFF;" d="M278.513,227.291c0,0-1.762-5.633,0.425-9.692c2.187-4.059,4.089-6.169,4.089-6.169
				S288.059,221.922,278.513,227.291z"/>
			<path style="fill:#FFFFFF;" d="M274.52,207.301c0,0-3.204-4.957-2.181-9.453c1.023-4.496,2.292-7.037,2.292-7.037
				S282.283,199.576,274.52,207.301z"/>
			<path style="fill:#FFFFFF;" d="M285.463,241.453c0,0,4.973-3.179,5.91-7.693c0.937-4.515,0.839-7.354,0.839-7.354
				S281.61,231.201,285.463,241.453z"/>
			<path style="fill:#FFFFFF;" d="M301.423,216.036c0,0,4.973-3.179,5.91-7.693c0.937-4.515,0.839-7.354,0.839-7.354
				S297.569,205.784,301.423,216.036z"/>
			<path style="fill:#FFFFFF;" d="M298.876,256.88c0,0,5.714-1.481,8.003-5.483c2.29-4.002,3.076-6.732,3.076-6.732
				S298.389,245.938,298.876,256.88z"/>
			<path style="fill:#FFFFFF;" d="M320.155,241.807c0,0,5.714-1.481,8.003-5.483c2.29-4.002,3.076-6.732,3.076-6.732
				S319.668,230.866,320.155,241.807z"/>
			<path style="fill:#FFFFFF;" d="M300.159,270.658c0,0,5.36,2.472,9.666,0.825c4.306-1.647,6.644-3.262,6.644-3.262
				S306.711,261.882,300.159,270.658z"/>
			<path style="fill:#FFFFFF;" d="M323.48,271.674c0,0,4.071,4.274,8.681,4.331c4.61,0.057,7.378-0.583,7.378-0.583
				S332.807,265.932,323.48,271.674z"/>
			<path style="fill:#FFFFFF;" d="M314.387,283.226c0,0,3.217,4.948,7.739,5.85c4.522,0.902,7.36,0.781,7.36,0.781
				S324.609,279.293,314.387,283.226z"/>
			<path style="fill:#FFFFFF;" d="M307.68,258.124c0,0,5.36,2.472,9.666,0.825c4.307-1.647,6.644-3.262,6.644-3.262
				S314.232,249.348,307.68,258.124z"/>
			<path style="fill:#FFFFFF;" d="M330.141,254.873c0,0,5.36,2.472,9.666,0.825c4.306-1.647,6.644-3.262,6.644-3.262
				S336.693,246.097,330.141,254.873z"/>
			<path style="fill:#FFFFFF;" d="M232.646,266.131c0,0,3.601,4.677,8.18,5.216c4.579,0.539,7.399,0.193,7.399,0.193
				S242.523,261.397,232.646,266.131z"/>
			<path style="fill:#FFFFFF;" d="M220.947,249.975c0,0,3.601,4.677,8.18,5.216c4.579,0.539,7.399,0.193,7.399,0.193
				S230.824,245.242,220.947,249.975z"/>
			<path style="fill:#FFFFFF;" d="M194.667,255.223c0,0,4.901,3.289,9.414,2.343c4.513-0.945,7.076-2.17,7.076-2.17
				S202.525,247.594,194.667,255.223z"/>
			<path style="fill:#FFFFFF;" d="M205.906,273.451c0,0,4.476,3.848,9.069,3.445c4.593-0.403,7.284-1.314,7.284-1.314
				S214.615,266.809,205.906,273.451z"/>
		</g>
	</g>
	<g>
		<path style="fill:#92E3A9;" d="M467.927,83.488c-66.405,0.108-120.203,51.235-120.203,114.295c0,0.316,0.001,0.632,0.004,0.946
			c0.295,34.303,28.823,61.862,63.117,61.007c5.327-0.133,11.007,0.141,16.688,1.057c11.366,1.833,20.164,8.5,26.128,16.205
			c3.296,4.257,8.248,6.946,13.632,6.965c0.211,0.001,0.422,0.001,0.634,0.001c0.211,0,0.423-0.001,0.634-0.001
			c5.384-0.019,10.336-2.708,13.632-6.965c5.965-7.705,14.763-14.372,26.128-16.205c5.681-0.916,11.362-1.19,16.688-1.057
			c34.294,0.855,62.822-26.704,63.117-61.007c0.003-0.314,0.004-0.63,0.004-0.946C588.13,134.724,534.332,83.596,467.927,83.488z"/>
		<path style="opacity:0.21;fill:#FFFFFF;" d="M467.927,83.488c-66.405,0.108-120.203,51.235-120.203,114.295
			c0,0.316,0.001,0.632,0.004,0.946c0.295,34.303,28.823,61.862,63.117,61.007c5.327-0.133,11.007,0.141,16.688,1.057
			c11.366,1.833,20.164,8.5,26.128,16.205c3.296,4.257,8.248,6.946,13.632,6.965c0.211,0.001,0.422,0.001,0.634,0.001
			c0.211,0,0.423-0.001,0.634-0.001c5.384-0.019,10.336-2.708,13.632-6.965c5.965-7.705,14.763-14.372,26.128-16.205
			c5.681-0.916,11.362-1.19,16.688-1.057c34.294,0.855,62.822-26.704,63.117-61.007c0.003-0.314,0.004-0.63,0.004-0.946
			C588.13,134.724,534.332,83.596,467.927,83.488z"/>
		<polygon style="fill:#B0B0B0;" points="509.507,223.952 482.918,229.701 514.648,190.168 471.317,230.562 471.05,233.361 
			469.113,190.902 466.054,257.965 423.328,218.135 455.058,257.668 428.469,251.919 462.082,266.418 465.476,270.647 
			459.566,437.997 478.661,437.997 471.53,243.889 475.894,238.452 		"/>
		<g>
			<path style="fill:#FFFFFF;" d="M444.031,185.004c0,0-2.711-7.745-8.519-10.455c-5.808-2.711-9.681-3.485-9.681-3.485
				S428.929,186.94,444.031,185.004z"/>
			<path style="fill:#FFFFFF;" d="M401.303,154.601c0,0-2.711-7.744-8.519-10.455c-5.808-2.71-9.681-3.485-9.681-3.485
				S386.201,156.538,401.303,154.601z"/>
			<path style="fill:#FFFFFF;" d="M451.046,164.42c0,0-0.446-8.193-5.27-12.414c-4.824-4.221-8.327-6.043-8.327-6.043
				S436.002,162.073,451.046,164.42z"/>
			<path style="fill:#FFFFFF;" d="M515.586,227.155c0,0-5.196-6.35-11.581-6.91c-6.385-0.56-10.289,0.037-10.289,0.037
				S502.057,234.141,515.586,227.155z"/>
			<path style="fill:#FFFFFF;" d="M520.516,247.287c0,0-5.196-6.35-11.581-6.91c-6.385-0.56-10.289,0.037-10.289,0.037
				S506.987,254.272,520.516,247.287z"/>
			<path style="fill:#FFFFFF;" d="M414.179,225.216c0,0,5.196-6.35,11.581-6.91c6.385-0.56,10.289,0.037,10.289,0.037
				S427.708,232.201,414.179,225.216z"/>
			<path style="fill:#FFFFFF;" d="M392.815,243.293c0,0,5.196-6.35,11.582-6.91c6.385-0.56,10.289,0.037,10.289,0.037
				S406.344,250.278,392.815,243.293z"/>
			<path style="fill:#FFFFFF;" d="M428.199,157.45c0,0-0.446-8.193-5.27-12.414c-4.824-4.221-8.327-6.043-8.327-6.043
				S413.156,155.103,428.199,157.45z"/>
			<path style="fill:#FFFFFF;" d="M504.095,162.096c0,0,0.446-8.193,5.27-12.414c4.824-4.221,8.327-6.043,8.327-6.043
				S519.139,159.75,504.095,162.096z"/>
			<path style="fill:#FFFFFF;" d="M466.311,151.557c0,0,4.731-6.704,3.566-13.006c-1.166-6.303-2.784-9.905-2.784-9.905
				S455.966,140.386,466.311,151.557z"/>
			<path style="fill:#FFFFFF;" d="M471.581,182.402c0,0,0.768-8.169-3.379-13.056c-4.147-4.887-7.343-7.207-7.343-7.207
				S457.049,177.86,471.581,182.402z"/>
			<path style="fill:#FFFFFF;" d="M452.091,145.084c0,0,2.45-7.831-0.591-13.473c-3.041-5.643-5.684-8.576-5.684-8.576
				S438.821,137.62,452.091,145.084z"/>
			<path style="fill:#FFFFFF;" d="M431.84,131.516c0,0,0.993-8.145-3.018-13.144c-4.011-5-7.142-7.406-7.142-7.406
				S417.439,126.575,431.84,131.516z"/>
			<path style="fill:#FFFFFF;" d="M458.287,205.878c0,0,2.45-7.831-0.591-13.473c-3.041-5.643-5.685-8.576-5.685-8.576
				S445.016,198.414,458.287,205.878z"/>
			<path style="fill:#FFFFFF;" d="M476.641,196.682c0,0,6.931-4.392,8.257-10.663c1.327-6.271,1.205-10.218,1.205-10.218
				S471.34,182.409,476.641,196.682z"/>
			<path style="fill:#FFFFFF;" d="M477.465,145.084c0,0-2.45-7.831,0.591-13.473c3.041-5.643,5.684-8.576,5.684-8.576
				S490.735,137.62,477.465,145.084z"/>
			<path style="fill:#FFFFFF;" d="M471.914,117.295c0,0-4.453-6.891-3.031-13.141c1.422-6.25,3.186-9.783,3.186-9.783
				S482.707,106.556,471.914,117.295z"/>
			<path style="fill:#FFFFFF;" d="M487.128,164.771c0,0,6.914-4.419,8.216-10.695s1.166-10.223,1.166-10.223
				S481.771,150.519,487.128,164.771z"/>
			<path style="fill:#FFFFFF;" d="M509.313,129.438c0,0,6.914-4.419,8.216-10.695c1.302-6.276,1.166-10.223,1.166-10.223
				S503.957,115.186,509.313,129.438z"/>
			<path style="fill:#FFFFFF;" d="M505.774,186.217c0,0,7.943-2.059,11.126-7.622c3.183-5.564,4.276-9.358,4.276-9.358
				S505.097,171.007,505.774,186.217z"/>
			<path style="fill:#FFFFFF;" d="M535.355,165.264c0,0,7.943-2.059,11.126-7.623c3.183-5.564,4.276-9.358,4.276-9.358
				S534.678,150.053,535.355,165.264z"/>
			<path style="fill:#FFFFFF;" d="M507.556,205.371c0,0,7.451,3.436,13.438,1.146c5.987-2.29,9.236-4.535,9.236-4.535
				S516.665,193.171,507.556,205.371z"/>
			<path style="fill:#FFFFFF;" d="M539.977,206.784c0,0,5.659,5.941,12.068,6.02c6.409,0.079,10.257-0.81,10.257-0.81
				S552.942,198.801,539.977,206.784z"/>
			<path style="fill:#FFFFFF;" d="M527.336,222.842c0,0,4.473,6.879,10.759,8.132c6.286,1.253,10.231,1.086,10.231,1.086
				S541.546,217.374,527.336,222.842z"/>
			<path style="fill:#FFFFFF;" d="M518.012,187.946c0,0,7.451,3.436,13.438,1.146c5.987-2.29,9.236-4.535,9.236-4.535
				S527.12,175.746,518.012,187.946z"/>
			<path style="fill:#FFFFFF;" d="M549.236,183.427c0,0,7.451,3.437,13.437,1.146c5.987-2.29,9.236-4.535,9.236-4.535
				S558.344,171.227,549.236,183.427z"/>
			<path style="fill:#FFFFFF;" d="M413.704,199.078c0,0,5.005,6.502,11.371,7.251c6.366,0.749,10.285,0.269,10.285,0.269
				S427.434,192.497,413.704,199.078z"/>
			<path style="fill:#FFFFFF;" d="M397.44,176.619c0,0,5.006,6.502,11.371,7.251c6.366,0.749,10.285,0.269,10.285,0.269
				S411.17,170.038,397.44,176.619z"/>
			<path style="fill:#FFFFFF;" d="M360.907,183.914c0,0,6.813,4.572,13.087,3.258c6.273-1.314,9.837-3.017,9.837-3.017
				S371.83,173.308,360.907,183.914z"/>
			<path style="fill:#FFFFFF;" d="M376.531,209.253c0,0,6.222,5.349,12.607,4.789s10.125-1.827,10.125-1.827
				S388.637,200.02,376.531,209.253z"/>
		</g>
	</g>
</g>
<g id="Plants">
	<g>
		<g>
			<g>
				
					<line style="fill:none;stroke:#263238;stroke-linecap:round;stroke-linejoin:round;stroke-miterlimit:10;" x1="540.911" y1="436.698" x2="540.911" y2="382.77"/>
				
					<line style="fill:none;stroke:#263238;stroke-linecap:round;stroke-linejoin:round;stroke-miterlimit:10;" x1="540.386" y1="411.66" x2="518.904" y2="388.185"/>
				
					<line style="fill:none;stroke:#263238;stroke-linecap:round;stroke-linejoin:round;stroke-miterlimit:10;" x1="541.05" y1="389.071" x2="555.445" y2="375.341"/>
				
					<line style="fill:none;stroke:#263238;stroke-linecap:round;stroke-linejoin:round;stroke-miterlimit:10;" x1="528.648" y1="399.037" x2="527.541" y2="384.863"/>
				
					<line style="fill:none;stroke:#263238;stroke-linecap:round;stroke-linejoin:round;stroke-miterlimit:10;" x1="540.829" y1="425.612" x2="557.217" y2="416.089"/>
				
					<line style="fill:none;stroke:#263238;stroke-linecap:round;stroke-linejoin:round;stroke-miterlimit:10;" x1="547.472" y1="382.87" x2="560.539" y2="383.313"/>
			</g>
			<path style="fill:#92E3A9;" d="M537.327,376.128c0,4.523,3.737,8.19,3.737,8.19s3.737-3.667,3.737-8.19
				c0-4.523-3.737-8.19-3.737-8.19S537.327,371.605,537.327,376.128z"/>
			<path style="fill:#92E3A9;" d="M556.828,368.896c-3.53,2.828-4.055,8.038-4.055,8.038s5.198,0.624,8.729-2.204
				c3.53-2.828,4.055-8.038,4.055-8.038S560.358,366.067,556.828,368.896z"/>
			<path style="fill:#92E3A9;" d="M562.892,379.428c-4.523,0.031-8.164,3.793-8.164,3.793s3.692,3.712,8.216,3.681
				c4.523-0.031,8.164-3.793,8.164-3.793S567.415,379.397,562.892,379.428z"/>
			<path style="fill:#92E3A9;" d="M523.402,384.485c0.461,4.5,4.554,7.766,4.554,7.766s3.344-4.029,2.882-8.529
				c-0.461-4.5-4.554-7.766-4.554-7.766S522.941,379.985,523.402,384.485z"/>
			<path style="fill:#92E3A9;" d="M548.082,407.474c-2.3,3.895-7.382,5.152-7.382,5.152s-1.354-5.058,0.946-8.953
				c2.3-3.895,7.382-5.152,7.382-5.152S550.382,403.579,548.082,407.474z"/>
			<path style="fill:#92E3A9;" d="M533.465,384.624c2.3,3.895,7.382,5.152,7.382,5.152s1.354-5.058-0.946-8.953
				c-2.3-3.895-7.383-5.152-7.383-5.152S531.165,380.729,533.465,384.624z"/>
			<path style="fill:#92E3A9;" d="M557.7,410.263c-3.714,2.582-4.591,7.744-4.591,7.744s5.144,0.975,8.858-1.607
				c3.714-2.582,4.591-7.744,4.591-7.744S561.414,407.681,557.7,410.263z"/>
			<path style="fill:#92E3A9;" d="M512.397,386.456c3.009,3.377,8.239,3.629,8.239,3.629s0.351-5.224-2.658-8.601
				c-3.009-3.377-8.239-3.629-8.239-3.629S509.388,383.078,512.397,386.456z"/>
		</g>
		<path style="fill:#263238;" d="M563.165,437.597c0,0-16.25-6.5-22.75-6.5c-6.5,0-21.938,6.906-21.938,6.906L563.165,437.597z"/>
	</g>
	<g>
		<g>
			<g>
				
					<line style="fill:none;stroke:#263238;stroke-linecap:round;stroke-linejoin:round;stroke-miterlimit:10;" x1="186.139" y1="436.698" x2="186.139" y2="359.818"/>
				
					<line style="fill:none;stroke:#263238;stroke-linecap:round;stroke-linejoin:round;stroke-miterlimit:10;" x1="186.665" y1="411.66" x2="208.146" y2="388.185"/>
				
					<line style="fill:none;stroke:#263238;stroke-linecap:round;stroke-linejoin:round;stroke-miterlimit:10;" x1="186" y1="389.071" x2="171.605" y2="375.341"/>
				
					<line style="fill:none;stroke:#263238;stroke-linecap:round;stroke-linejoin:round;stroke-miterlimit:10;" x1="198.402" y1="399.037" x2="199.509" y2="384.863"/>
				
					<line style="fill:none;stroke:#263238;stroke-linecap:round;stroke-linejoin:round;stroke-miterlimit:10;" x1="186.222" y1="425.612" x2="169.833" y2="416.089"/>
				
					<line style="fill:none;stroke:#263238;stroke-linecap:round;stroke-linejoin:round;stroke-miterlimit:10;" x1="179.578" y1="382.87" x2="166.512" y2="383.313"/>
			</g>
			<path style="fill:#92E3A9;" d="M189.723,353.176c0,4.523-3.737,8.19-3.737,8.19s-3.737-3.667-3.737-8.19
				c0-4.523,3.737-8.19,3.737-8.19S189.723,348.653,189.723,353.176z"/>
			<path style="fill:#92E3A9;" d="M170.223,368.896c3.53,2.828,4.055,8.038,4.055,8.038s-5.199,0.624-8.729-2.204
				c-3.53-2.828-4.055-8.038-4.055-8.038S166.693,366.067,170.223,368.896z"/>
			<path style="fill:#92E3A9;" d="M164.159,379.428c4.523,0.031,8.164,3.793,8.164,3.793s-3.692,3.712-8.216,3.681
				c-4.523-0.031-8.164-3.793-8.164-3.793S159.635,379.397,164.159,379.428z"/>
			<path style="fill:#92E3A9;" d="M203.648,384.485c-0.462,4.5-4.553,7.766-4.553,7.766s-3.344-4.029-2.882-8.529
				c0.462-4.5,4.553-7.766,4.553-7.766S204.109,379.985,203.648,384.485z"/>
			<path style="fill:#92E3A9;" d="M178.968,407.474c2.3,3.895,7.382,5.152,7.382,5.152s1.354-5.058-0.946-8.953
				c-2.3-3.895-7.382-5.152-7.382-5.152S176.668,403.579,178.968,407.474z"/>
			<path style="fill:#92E3A9;" d="M193.585,384.624c-2.3,3.895-7.382,5.152-7.382,5.152s-1.354-5.058,0.946-8.953
				c2.3-3.895,7.382-5.152,7.382-5.152S195.885,380.729,193.585,384.624z"/>
			<path style="fill:#92E3A9;" d="M169.35,410.263c3.714,2.582,4.591,7.744,4.591,7.744s-5.144,0.975-8.858-1.607
				c-3.714-2.582-4.591-7.744-4.591-7.744S165.636,407.681,169.35,410.263z"/>
			<path style="fill:#92E3A9;" d="M214.653,386.456c-3.009,3.377-8.239,3.629-8.239,3.629s-0.351-5.224,2.658-8.601
				c3.009-3.377,8.239-3.629,8.239-3.629S217.662,383.078,214.653,386.456z"/>
		</g>
		<path style="fill:#263238;" d="M163.886,437.597c0,0,16.25-6.5,22.75-6.5c6.5,0,21.938,6.906,21.938,6.906L163.886,437.597z"/>
	</g>
</g>
<g id="Shovel">
	<g>
		<g>
			<path style="fill:#ADADAD;stroke:#263238;stroke-linecap:round;stroke-linejoin:round;stroke-miterlimit:10;" d="
				M661.645,435.584h24.549c0.1-0.239,0.201-0.474,0.298-0.721c3.293-8.413,1.188-14.452,1.188-14.452s-24.264-4.443-24.989-3.618
				c-0.725,0.826-1.957,8.223-1.548,15.306C661.211,433.276,661.387,434.439,661.645,435.584z"/>
			<path style="fill:#263238;" d="M701.542,322.118c-0.104-0.384-0.416-0.676-0.805-0.756l-15.037-2.938
				c-0.448-0.092-0.903,0.115-1.128,0.513c-0.144,0.254-1.362,2.677,0.149,9.32c1.024,4.502,1.459,6.931,2.028,8.534
				c0.227,0.638,0.406,1.142,0.465,1.424c0.01,0.049,0.024,0.098,0.041,0.144c0.14,0.385,0.494,0.659,0.911,0.69l3.582,0.268
				c0.309,0.023,0.613-0.091,0.83-0.313c0.131-0.134,3.393-4.565,5.558-7.274C700.451,328.833,702.161,324.4,701.542,322.118z
				 M696.49,330.415c-1.691,2.115-4.207,5.861-5.078,6.766l-2.359-0.177c-0.087-0.262-0.193-0.562-0.32-0.918
				c-0.554-1.559-0.962-3.915-1.959-8.296c-0.562-2.473-0.709-4.256-0.695-5.493l13.242,2.632
				C698.882,326.636,697.878,328.678,696.49,330.415z"/>
			<path style="fill:#FFFFFF;stroke:#263238;stroke-linecap:round;stroke-linejoin:round;stroke-miterlimit:10;" d="
				M688.111,336.861l-15.198,85.495c0,0,0.025,13.958,1.048,12.127c1.023-1.831,3.401-10.756,3.547-11.699
				c0.146-0.944,14.471-85.134,14.471-85.134L688.111,336.861z"/>
			<path style="fill:#ADADAD;stroke:#263238;stroke-linecap:round;stroke-linejoin:round;stroke-miterlimit:10;" d="
				M674.905,411.154l-1.992,11.202c0,0,0.025,13.958,1.048,12.127c1.023-1.831,3.401-10.756,3.547-11.699
				c0.032-0.207,0.728-4.425,1.795-10.878L674.905,411.154z"/>
		</g>
		<path style="fill:#263238;" d="M702.964,438.004c-7.026-2.401-22.919-7.445-31.212-6.98c-8.439,0.473-20.026,4.995-24.756,6.98
			H702.964z"/>
	</g>
</g>
<g id="Floor">
	<g>
		
			<line style="fill:none;stroke:#263238;stroke-linecap:round;stroke-linejoin:round;stroke-miterlimit:10;" x1="714.524" y1="437.997" x2="724.505" y2="437.997"/>
		
			<line style="fill:none;stroke:#263238;stroke-linecap:round;stroke-linejoin:round;stroke-miterlimit:10;" x1="30.868" y1="437.997" x2="705.908" y2="437.997"/>
	</g>
</g>
<g id="Character_4">
	<g>
		<g>
			<path style="fill:#FFFFFF;stroke:#263238;stroke-linecap:round;stroke-linejoin:round;stroke-miterlimit:10;" d="
				M574.997,304.388c0,0-0.809,7.412-0.674,9.569c0.135,2.156,2.022,2.156,1.617,4.043c-0.404,1.887-2.561,4.852-1.887,5.795
				c0.674,0.943,3.504,1.617,3.504,1.617l4.717,5.121l6.873-2.561l5.391-10.512c0,0,1.617-9.03-3.1-13.073
				c-4.717-4.043-8.086-4.178-10.781-3.504C577.962,301.558,574.997,304.388,574.997,304.388z"/>
			<path style="fill:#263238;stroke:#263238;stroke-linecap:round;stroke-linejoin:round;stroke-miterlimit:10;" d="M586.048,311.8
				c0.539,1.348,4.582,12.803,4.852,14.42c0.27,1.617-0.404,3.908-0.809,5.121c-0.404,1.213-2.426,3.908-4.717,4.717
				c-2.291,0.809-3.234-0.135-4.313-1.078c-1.078-0.943-0.943-3.1-1.213-4.717c-0.269-1.617-2.021-3.504-2.291-4.852
				c-0.27-1.348,2.021-2.291,3.234-1.752c1.213,0.539,2.561,1.482,2.561,1.482s1.887-0.674,1.887-2.83
				c0-2.156-1.887-9.703-1.887-9.703s-4.178-0.809-5.391-1.482c-1.213-0.674,0.539-2.965,0.539-2.965s2.156-3.504,1.348-4.582
				c-0.809-1.078-3.639,1.617-4.313,1.752c-0.674,0.135-2.021,0.809-2.021-1.752s0.809-5.795,1.482-4.852
				c0.674,0.943,1.213,1.752,1.887,0.674c0.674-1.078,0.943-2.426,1.887-1.617c0.943,0.809,0.943,0.809,0.943,0.809
				s2.291-2.156,7.008-3.234c4.717-1.078,11.32-0.27,13.477,3.773c2.156,4.043,1.348,10.512,1.617,10.916
				c0.27,0.404-0.404,1.887-2.56,3.369c-2.156,1.482-4.717,4.043-4.717,4.043l-4.582-4.313c0,0,0.135-3.773-1.887-3.773
				C586.048,309.374,586.048,311.8,586.048,311.8z"/>
			<path style="fill:#FFFFFF;stroke:#263238;stroke-linecap:round;stroke-linejoin:round;stroke-miterlimit:10;" d="
				M578.097,314.765c0,0-3.234-2.021-3.773-0.809"/>
			<g>
				<path style="fill:#263238;" d="M577.019,319.173c0.24,0,0.452-0.173,0.493-0.418c0.151-0.905-0.243-2.126-0.289-2.262
					c-0.087-0.262-0.37-0.403-0.632-0.316c-0.262,0.087-0.404,0.37-0.317,0.632c0.102,0.306,0.344,1.222,0.251,1.782
					c-0.045,0.272,0.139,0.53,0.411,0.575C576.965,319.171,576.992,319.173,577.019,319.173z"/>
			</g>
			<path style="fill:none;stroke:#FFFFFF;stroke-linecap:round;stroke-linejoin:round;stroke-miterlimit:10;" d="M581.601,325.816
				c0,0-0.404,1.348-1.617,1.752"/>
		</g>
		<path style="fill:#FFFFFF;stroke:#263238;stroke-linecap:round;stroke-linejoin:round;stroke-miterlimit:10;" d="M577.092,431.081
			l-7.452,4.333c0,0-9.532,2.6-9.879,3.12c-0.347,0.52-0.173,1.56,1.906,2.426c2.08,0.867,16.118,2.426,22.357,2.253
			c6.239-0.173,11.959,0.693,13.519-2.253c1.56-2.946-1.213-9.706-1.213-9.706L577.092,431.081z"/>
		<g>
			<path style="fill:#FFFFFF;stroke:#263238;stroke-linecap:round;stroke-linejoin:round;stroke-miterlimit:10;" d="M640.871,412.19
				c0,0,8.839,7.626,8.319,9.532c-0.52,1.906-2.773,5.719-4.679,9.879c-1.906,4.159-1.906,7.799-4.506,9.012
				c-2.6,1.213-9.879,0.693-12.305,0.52c-2.426-0.173-4.68-0.867-3.466-2.773c1.213-1.906,3.293-1.906,3.466-4.853
				c0.173-2.946,1.04-9.706,1.04-9.706l9.359-12.132C638.099,411.67,638.099,410.284,640.871,412.19z"/>
			<path style="fill:#FFFFFF;stroke:#263238;stroke-linecap:round;stroke-linejoin:round;stroke-miterlimit:10;" d="
				M640.005,440.613c-1.73,0.807-5.528,0.846-8.593,0.731c0.535-0.299,1.094-0.605,1.66-0.905c2.946-1.56,8.146-14.038,9.879-17.331
				c1.733-3.293,6.239-1.387,6.239-1.387c-0.52,1.906-2.773,5.719-4.679,9.879C642.605,435.761,642.605,439.4,640.005,440.613z"/>
		</g>
		<path style="fill:#263238;stroke:#263238;stroke-linecap:round;stroke-linejoin:round;stroke-miterlimit:10;" d="M639.138,413.057
			L627.7,426.922c0,0-33.103-20.971-36.916-24.611c-3.813-3.64-4.853-7.626-4.679-11.092c0.173-3.466,3.813-8.146,6.759-7.106
			C595.81,385.153,639.138,413.057,639.138,413.057z"/>
		<path style="fill:#263238;stroke:#263238;stroke-linecap:round;stroke-linejoin:round;stroke-miterlimit:10;" d="M660.321,392.645
			c0,0-2.04,11.334-7.934,17.001c-5.894,5.667-19.494,5.894-22.441,4.987c-2.947-0.907-24.028-12.014-28.788-15.867
			c-4.76-3.854-12.014-11.56-12.014-11.56l7.934,45.335c0,0-6.12,0.68-8.16,0.227c-2.04-0.453-12.921-1.133-12.921-1.133
			s-0.68-4.08,0-6.12c0.68-2.04,1.587-2.72,1.133-4.08c-0.453-1.36-0.907-3.627-1.133-5.667c-0.227-2.04-8.387-39.441-9.294-45.108
			c-0.907-5.667,1.967-7.783,4.08-9.294l2.113-1.511c0,0,3.922-1.459,6.808-0.803c2.886,0.656,22.306,8.071,22.306,8.071
			l8.387,0.323c0,0,17.708,17.314,22.561,19.02c4.853,1.705,18.757,4.984,21.38,4.197c2.623-0.787,6.427-2.361,6.427-2.361
			L660.321,392.645z"/>
		<path style="fill:#FFFFFF;stroke:#263238;stroke-linecap:round;stroke-linejoin:round;stroke-miterlimit:10;" d="M585.992,340.237
			c0,0,2.521-15.249,4.411-19.282c1.89-4.033,11.343-11.469,17.266-9.704c5.923,1.764,26.359,15.194,41.055,42.224
			c14.696,27.03,13.646,39.627,13.646,39.627s-14.171,4.724-22.569,1.312c-8.398-3.412-10.76-4.199-16.796-11.547
			c-6.036-7.348-12.334-13.384-13.646-13.909c-1.312-0.525-7.348-1.837-7.348-1.837L585.992,340.237z"/>
		<path style="fill:#FFFFFF;stroke:#263238;stroke-linecap:round;stroke-linejoin:round;stroke-miterlimit:10;" d="M602.966,344.441
			c0,0-5.289,11.182-6.346,13.146c-1.058,1.964-5.742,9.217-8.915,8.008c-3.173-1.209-6.044-3.173-6.497-3.626
			c-0.453-0.453-4.08-2.871-4.08-2.871l-4.231,0.756c0,0,0.453-3.324,0.907-5.44c0.453-2.116,0.756-3.022,2.569-3.475
			c1.813-0.453,5.289-0.302,5.289-0.302l5.44-12.239L602.966,344.441z"/>
		
			<line style="fill:#FFFFFF;stroke:#263238;stroke-linecap:round;stroke-linejoin:round;stroke-miterlimit:10;" x1="581.661" y1="350.636" x2="580.905" y2="354.867"/>
		
			<line style="fill:#FFFFFF;stroke:#263238;stroke-linecap:round;stroke-linejoin:round;stroke-miterlimit:10;" x1="577.128" y1="359.098" x2="574.861" y2="356.68"/>
		<path style="fill:#FFFFFF;stroke:#263238;stroke-linecap:round;stroke-linejoin:round;stroke-miterlimit:10;" d="M609.917,328.877
			l-5.893,18.585l-19.794-7.706c0,0,4.792-14.183,6.173-18.802c1.382-4.619,7.728-9.605,10.75-9.605
			c3.022,0,6.648,1.662,7.555,3.475"/>
		
			<line style="fill:none;stroke:#FFFFFF;stroke-linecap:round;stroke-linejoin:round;stroke-miterlimit:10;" x1="588.704" y1="386.02" x2="576.572" y2="373.368"/>
	</g>
</g>
<g id="Character_3">
	<g>
		<g>
			<g>
				<path style="fill:#FFFFFF;stroke:#263238;stroke-linecap:round;stroke-linejoin:round;stroke-miterlimit:10;" d="
					M509.34,372.557c0-2.598,0.137-5.253,0.157-7.899c5.293-0.397,11.005-0.845,13.464-1.11c5.143-0.554,8.159-2.324,8.159-2.324
					l7.049-3.497c0,0,8.756,1.802,9.269,1.886c0.513,0.084,0.712,0.953-0.398,1.299c-1.11,0.345-3.425-0.095-3.425-0.095
					s4.116,0.797,4.043,1.435c-0.073,0.639-0.775,1.33-1.676,1.152c-0.901-0.178-4.294,0.104-4.294,0.104s5.624,2.19,4.042,2.954
					s-3.854-0.692-3.854-0.692s2.576,2.064,1.319,2.168c-1.257,0.105-4.116-0.797-4.116-0.797s-5.708,1.361-7.698,1.78
					c-1.99,0.419-3.938-0.178-3.938-0.178s-9.992,3.177-18.109,4.905C509.335,373.284,509.34,372.92,509.34,372.557z"/>
				<path style="fill:none;stroke:#263238;stroke-linecap:round;stroke-linejoin:round;stroke-miterlimit:10;" d="M535.823,359.946
					c0,0,6.881,0.566,7.792,0.87c0.911,0.304,1.76,1.372,0.408,1.864c-1.351,0.492-6.536,0.544-6.536,0.544
					s-1.404,2.901-4.619,2.283c-3.215-0.618-3.215-0.618-3.215-0.618"/>
			</g>
			<g>
				<path style="fill:#FFFFFF;stroke:#263238;stroke-linecap:round;stroke-linejoin:round;stroke-miterlimit:10;" d="
					M480.925,415.109l-3.405,13.495c0,0,5.171,3.531,6.558,4.288c1.387,0.757,6.432,2.018,7.693,2.522
					c1.261,0.504,2.144,1.766,0.631,2.648c-1.513,0.883-9.459,1.513-12.99,1.387c-3.531-0.126-8.828-0.757-8.828-0.757
					s-5.171,0-5.675-1.135c-0.505-1.135-0.126-5.045,0.883-6.306c1.009-1.261,2.775-4.288,3.027-5.549
					c0.252-1.261,1.387-8.828,1.387-8.828L480.925,415.109z"/>
				<path style="fill:#FFFFFF;stroke:#263238;stroke-linecap:round;stroke-linejoin:round;stroke-miterlimit:10;" d="
					M464.908,437.558c-0.505-1.135-0.126-5.045,0.883-6.306c0.206-0.257,0.447-0.6,0.696-0.974c2.938,1.327,9.141,1.605,9.141,1.605
					s0.504-1.513,0.631-2.27c0.126-0.757,1.261-1.009,1.261-1.009s5.171,3.531,6.558,4.288c1.387,0.757,6.432,2.018,7.693,2.522
					c1.261,0.504,2.144,1.766,0.631,2.648c-1.513,0.883-9.459,1.513-12.99,1.387c-3.531-0.126-8.828-0.757-8.828-0.757
					S465.413,438.693,464.908,437.558z"/>
			</g>
			<g>
				<path style="fill:#FFFFFF;stroke:#263238;stroke-linecap:round;stroke-linejoin:round;stroke-miterlimit:10;" d="M449.9,422.172
					l-7.819,3.279c0,0-0.126,3.657,1.513,6.558c1.639,2.901,2.648,5.045,4.54,6.054c1.892,1.009,3.91,2.522,2.648,3.531
					c-1.261,1.009-13.242,0.883-14.63,0.378c-1.387-0.504-5.675-7.063-6.684-8.828c-1.009-1.766-2.648-7.189-2.018-7.945
					c0.631-0.757,4.162-4.666,4.162-4.666l1.135-0.631l14.377-2.018L449.9,422.172z"/>
				<path style="fill:#FFFFFF;stroke:#263238;stroke-linecap:round;stroke-linejoin:round;stroke-miterlimit:10;" d="
					M427.451,425.198c0.631-0.757,4.162-4.666,4.162-4.666l1.135-0.631l0.083-0.012c0.024,0.996,0.043,2.07,0.043,2.912
					c0,2.144,2.648,4.666,2.648,4.666s2.144-1.513,4.666-2.396c2.522-0.883,1.892,0.378,1.892,0.378s-0.126,3.657,1.513,6.558
					s2.648,5.045,4.54,6.054c1.892,1.009,3.91,2.522,2.648,3.531c-1.261,1.009-13.242,0.883-14.63,0.378
					c-1.387-0.504-5.675-7.063-6.684-8.828C428.46,431.378,426.821,425.955,427.451,425.198z"/>
			</g>
			<g>
				<path style="fill:#263238;stroke:#263238;stroke-linecap:round;stroke-linejoin:round;stroke-miterlimit:10;" d="
					M457.467,388.246l0.757,2.27c0,0,9.711-7.315,19.422-10.72c9.711-3.405,17.026-4.162,19.801-0.505s1.009,11.225-1.766,15.008
					c-2.775,3.784-9.711,21.818-9.711,21.818l-4.162,0.252l-4.288,3.531c0,0-12.99,3.027-14.504,3.657
					c-1.513,0.631-9.837,4.792-9.837,4.792s-3.91-3.405-5.045-4.918c-1.135-1.513-2.775-5.045-2.775-5.045l-14.756,1.639
					c0,0-6.936-5.297-7.819-13.368c-0.883-8.072,0.631-13.621,1.513-15.008c0.883-1.387,2.775-4.414,2.775-4.414l1.513-1.892
					L457.467,388.246z"/>
				<path style="fill:none;stroke:#FFFFFF;stroke-linecap:round;stroke-linejoin:round;stroke-miterlimit:10;" d="M433.667,404.392
					c-1.152,0.59-2.306,1.258-3.442,2.014"/>
				<path style="fill:none;stroke:#FFFFFF;stroke-linecap:round;stroke-linejoin:round;stroke-miterlimit:10;" d="M483.069,414.226
					c0,0,3.531-4.414,1.766-7.819c-1.766-3.405-22.701-7.567-35.187-6.432c0,0-6.715,0.246-14.074,3.508"/>
				<path style="fill:none;stroke:#FFFFFF;stroke-linecap:round;stroke-linejoin:round;stroke-miterlimit:10;" d="M447.63,399.092
					c0,0-8.198-0.505-16.521,0.757"/>
				<path style="fill:none;stroke:#263238;stroke-linecap:round;stroke-linejoin:round;stroke-miterlimit:10;" d="M457.215,391.525
					c0,0-4.162,3.405-5.297,5.675"/>
				<path style="fill:none;stroke:#FFFFFF;stroke-linecap:round;stroke-linejoin:round;stroke-miterlimit:10;" d="M491.267,387.868
					c0,0-13.495,9.585-16.774,13.873"/>
				<path style="fill:none;stroke:#FFFFFF;stroke-linecap:round;stroke-linejoin:round;stroke-miterlimit:10;" d="M445.36,418.388
					c0,0,9.081-4.162,13.999-5.171c4.919-1.009,5.675-0.378,9.207-2.144"/>
				<path style="fill:none;stroke:#FFFFFF;stroke-linecap:round;stroke-linejoin:round;stroke-miterlimit:10;" d="M474.241,413.343
					c0,0-4.666,0.378-7.189-0.757"/>
			</g>
			<path style="fill:#263238;stroke:#263238;stroke-linecap:round;stroke-linejoin:round;stroke-miterlimit:10;" d="
				M468.722,302.687c0,0-0.917-2.523-4.817-3.44c-2.282-0.537-5.926-0.911-7.764,0.96c-2.372,2.414-2.905,5.945-5.901,7.852
				c-3.225,2.054-6.611,2.808-8.675,6.42c-1.657,2.899,2.617,7.702,2.158,9.308c-0.459,1.605-3.899,0.459-4.357,5.275
				s2.752,7.568,2.752,8.256c0,0.688-2.981,0.229-3.211,3.899c-0.229,3.669,3.669,6.192,3.669,6.192s12.155-10.32,15.137-13.76
				c2.981-3.44,2.293-8.256,1.605-10.779c-0.688-2.523,2.523-11.238,5.733-13.99C468.263,306.127,468.722,302.687,468.722,302.687z"
				/>
			<g>
				<path style="fill:#92E3A9;stroke:#263238;stroke-linecap:round;stroke-linejoin:round;stroke-miterlimit:10;" d="
					M421.079,391.784c0.952-2.617,9.279-17.606,9.279-17.607c2.102-4.09,2.627-9.512,4.095-13.893
					c2.549-7.607,4.876-15.506,10.664-21.18c2.34-2.293,6.638-3.918,8.945-6.224c1.387-1.387,0.757-1.261,2.144-1.766
					c1.387-0.504,9.081-0.504,14.125,2.775c2.519,1.396,5.004,2.971,7.245,4.782c3.766,3.042,5.806,7.621,8.205,11.7
					c1.308,2.223,2.794,4.327,4.323,6.404c0.648,0.88,4.012,6.541,4.919,6.552c0.001,0,17.997,0.227,17.997,0.227l-0.438,10.082
					l-21.644,2.124l-13.161-13.72c-0.244,1.212-4.389,2.007-5.346,3.685l-5.67,15.829l1.904,1.904c0,0-5.473,6.9-6.186,8.09
					c-0.714,1.19-2.617,3.807-2.617,3.807l-2.855-2.141l-1.19,5.234l-16.893-2.379l-16.655,5.71l-4.521,3.093
					C417.748,404.871,420.127,394.402,421.079,391.784z"/>
				<polygon style="fill:#FFFFFF;stroke:#263238;stroke-linecap:round;stroke-linejoin:round;stroke-miterlimit:10;" points="
					514.608,363.553 514.562,374.648 509.674,375.223 509.365,362.877 				"/>
				<path style="fill:none;stroke:#263238;stroke-linecap:round;stroke-linejoin:round;stroke-miterlimit:10;" d="M441.201,368.737
					c5.046-1.147,13.302-4.587,13.302-4.587l-7.109,7.109"/>
				<path style="fill:none;stroke:#263238;stroke-linecap:round;stroke-linejoin:round;stroke-miterlimit:10;" d="M464.823,381.58
					c0,0-7.109,4.816-8.027,4.816c-0.917,0-3.669-0.917-3.669-0.917"/>
				<path style="fill:none;stroke:#263238;stroke-linecap:round;stroke-linejoin:round;stroke-miterlimit:10;" d="M465.511,365.985
					c0,0-5.963,11.467-6.88,13.76c-0.917,2.293-1.835,6.651-1.835,6.651l0.671,1.85"/>
			</g>
			<g>
				<path style="fill:none;stroke:#263238;stroke-linecap:round;stroke-linejoin:round;stroke-miterlimit:10;" d="M450.998,362.885"
					/>
			</g>
			<g>
				<g>
					<polygon style="fill:#FFFFFF;stroke:#263238;stroke-linecap:round;stroke-linejoin:round;stroke-miterlimit:10;" points="
						474.137,339.915 472.948,343.96 470.552,341.257 					"/>
					<polygon style="fill:#FFFFFF;stroke:#263238;stroke-linecap:round;stroke-linejoin:round;stroke-miterlimit:10;" points="
						469.379,335.395 474.137,339.915 467.178,342.844 466.048,338.726 					"/>
					<path style="fill:#FFFFFF;stroke:#263238;stroke-linecap:round;stroke-linejoin:round;stroke-miterlimit:10;" d="
						M484.961,310.81c0,0,0.504,1.64,1.009,5.045c0.505,3.405-1.387,4.54-1.766,6.684c-0.378,2.144,2.144,5.171,2.018,6.054
						c-0.126,0.883-2.396,0.883-2.396,0.883s-4.458,7.824-5.719,7.951c-1.261,0.126-5.506-3.536-5.506-3.536l-4.792,5.297
						c0,0,0.504,4.162-0.631,3.657c-1.135-0.504-3.279-2.144-5.675-5.045c-2.396-2.901-5.297-4.666-5.297-4.666
						s3.153-4.036,3.784-6.432c0.631-2.396-2.018-0.504-2.522-6.306c-0.504-5.801,1.766-11.477,5.801-14.63
						c4.036-3.153,11.855-4.54,17.404-1.513C486.222,307.278,485.339,309.801,484.961,310.81z"/>
					<polygon style="fill:#FFFFFF;stroke:#263238;stroke-linecap:round;stroke-linejoin:round;stroke-miterlimit:10;" points="
						457.958,328.971 470.092,342.295 466.666,348.211 454.062,332.88 					"/>
					<path style="fill:#263238;stroke:#263238;stroke-linecap:round;stroke-linejoin:round;stroke-miterlimit:10;" d="
						M483.8,305.558c0,0,4.973,0.878,5.412,2.487c0.439,1.609-1.609,2.779-1.755,4.535c-0.146,1.755,2.048,2.925,1.609,4.388
						c-0.439,1.463-1.755,3.803-1.755,3.803s-0.78-3.983-1.341-4.917c-0.561-0.934-0.872-3.743-1.009-5.045
						c-0.137-1.302-2.77-3.203-2.77-3.203S481.167,304.096,483.8,305.558z"/>
					<path style="fill:#263238;stroke:#263238;stroke-linecap:round;stroke-linejoin:round;stroke-miterlimit:10;" d="
						M463.269,305.765c4.036-3.153,11.855-4.54,17.404-1.513c5.549,3.027,4.666,5.549,4.288,6.558c0,0-0.067,1.372-3.898,3.287
						c-3.831,1.915-4.925,1.094-5.883,3.694c-0.958,2.6-5.746,4.515-6.841,3.831c-1.094-0.684-2.326-0.137-2.736,0.958
						c-0.208,0.556-0.418,1.109-0.733,1.522c0.148,0.614,0.185,1.142-0.214,1.59c-1.009,1.135-4.162,0.126-4.162,0.126
						s-0.169,0.012-0.437,0.028c-0.227-1.129-2.165-0.566-2.59-5.451C456.963,314.593,459.233,308.918,463.269,305.765z"/>
					<path style="fill:#263238;" d="M480.718,323.744c-0.258,0.684-0.177,1.349,0.181,1.484c0.358,0.135,0.858-0.31,1.117-0.994
						c0.258-0.684,0.177-1.349-0.181-1.484C481.476,322.615,480.976,323.06,480.718,323.744z"/>
					<path style="fill:none;stroke:#263238;stroke-linecap:round;stroke-linejoin:round;stroke-miterlimit:10;" d="M482.299,330.855
						c0,0-2.088,0.161-3.372-2.088"/>
					<path style="fill:none;stroke:#263238;stroke-linecap:round;stroke-linejoin:round;stroke-miterlimit:10;" d="M483.447,321.404
						c0,0-1.309-1.79-3.558-0.104"/>
				</g>
				<path style="fill:none;stroke:#263238;stroke-linecap:round;stroke-linejoin:round;stroke-miterlimit:10;" d="M465.034,324.304
					c0,0,1.639,2.018,2.775,2.018c1.135,0,1.135,0,1.135,0"/>
			</g>
			<polygon style="fill:#263238;stroke:#263238;stroke-linecap:round;stroke-linejoin:round;stroke-miterlimit:10;" points="
				472.601,333.889 469.981,331.746 470.255,336.534 			"/>
		</g>
		<g>
			<g>
				<path style="fill:#FFFFFF;stroke:#263238;stroke-linecap:round;stroke-linejoin:round;stroke-miterlimit:10;" d="
					M470.986,357.745l13.804,9.389c0,0,9.001,3.122,17.37,5.235c8.37,2.113,16.341,3.892,17.187,3.883
					c0.846-0.009,9.393-2.579,10.125-2.643c0.732-0.064,6.864,3.764,6.864,3.764s0.32,3.663,0.044,4.23
					c-0.276,0.567-1.355-0.099-1.355-0.099s-0.994,2.041-1.442,2.384c-0.448,0.343-1.337,1.593-1.852,0.922
					c-0.514-0.671-1.675-3.762-1.675-3.762s-4.617,0.837-6.308,0.855c-1.692,0.018-10.896-0.959-13.042-1.162
					c-2.145-0.203-27.159-2.708-27.673-3.379c-0.514-0.672-22.107-15.959-22.107-15.959L470.986,357.745z"/>
				<polyline style="fill:none;stroke:#263238;stroke-linecap:round;stroke-linejoin:round;stroke-miterlimit:10;" points="
					531.308,376.466 534.148,378.411 535.026,381.504 				"/>
				<polyline style="fill:none;stroke:#263238;stroke-linecap:round;stroke-linejoin:round;stroke-miterlimit:10;" points="
					530.584,377.376 532.982,380.228 533.584,383.888 				"/>
				<polyline style="fill:none;stroke:#263238;stroke-linecap:round;stroke-linejoin:round;stroke-miterlimit:10;" points="
					529.52,378.12 531.808,381.199 531.733,384.809 				"/>
			</g>
			<path style="fill:#92E3A9;stroke:#263238;stroke-linecap:round;stroke-linejoin:round;stroke-miterlimit:10;" d="
				M452.827,342.846c0,0,5.811,1.271,7.366,3.072c1.555,1.801,23.369,18.992,23.369,18.992l19.634,5.997l-2.498,9.196l-16.467-0.434
				l-38.526-19.304"/>
			<polygon style="fill:#FFFFFF;stroke:#263238;stroke-linecap:round;stroke-linejoin:round;stroke-miterlimit:10;" points="
				505.208,370.616 502.02,381.854 497.219,381.534 499.963,368.983 			"/>
		</g>
	</g>
</g>
<g id="Character_2">
	<g>
		<path style="fill:#ADADAD;stroke:#263238;stroke-linecap:round;stroke-linejoin:round;stroke-miterlimit:10;" d="M337.235,358.587
			l-5.245,52.167l8.222,1.276l12.9-49.474l2.126-0.284l11.766,47.348h9.923l-3.544-24.099l-2.835-37.708l-7.23-0.567
			c0,0-9.498,6.663-14.885,8.08c-5.387,1.418-11.624,0.85-11.624,0.85L337.235,358.587z"/>
		<path style="fill:#263238;stroke:#263238;stroke-linecap:round;stroke-linejoin:round;stroke-miterlimit:10;" d="M330.005,408.486
			l12.05,1.276l-4.253,19.138l-2.552,8.931c0,0-0.142,2.126-0.85,2.694c-0.709,0.567-5.67,0.992-7.939,0.709
			c-2.268-0.284-3.686-0.709-2.552-3.119s4.253-10.065,4.536-11.057c0.284-0.992,1.701-4.678,1.701-4.678L330.005,408.486z"/>
		<path style="fill:#263238;stroke:#263238;stroke-linecap:round;stroke-linejoin:round;stroke-miterlimit:10;" d="M365.303,408.061
			l3.119,24.241c0,0,0.142,6.663,0.992,6.946c0.851,0.284,10.915,0.425,11.341,0c0.425-0.425,0.567-1.418-0.425-3.26
			c-0.992-1.843-4.536-6.663-4.536-6.663l2.41-21.406L365.303,408.061z"/>
		<path style="fill:#FFFFFF;stroke:#263238;stroke-linecap:round;stroke-linejoin:round;stroke-miterlimit:10;" d="M335.392,305.994
			l-3.119,1.559l8.789,51.175c0,0,7.513,0.425,12.333-1.418c4.82-1.843,8.364-6.379,8.364-6.379s-1.299-29.998-5.245-38.133
			c-3.946-8.135-7.655-14.176-7.655-14.176L335.392,305.994z"/>
		<g>
			<path style="fill:#92E3A9;stroke:#263238;stroke-linecap:round;stroke-linejoin:round;stroke-miterlimit:10;" d="
				M346.984,309.388c0,0,8.11,15.892,9.535,21.81c1.425,5.918-0.219,9.645,1.425,14.138c1.644,4.493,5.48,10.521,5.48,10.521
				l8.11-7.014c0,0-2.521-23.673-5.809-31.564c-3.288-7.891-3.726-8.768-3.726-11.617c0-2.85-2.85-12.275-3.507-12.384
				c-0.658-0.11-10.741,0.658-14.248,4.603L346.984,309.388z"/>
			<g>
				<path style="fill:none;stroke:#263238;stroke-linecap:round;stroke-linejoin:round;stroke-miterlimit:10;" d="M365.725,317.279
					c0,0-5.472,7.189-8.571,8.517"/>
				<path style="fill:none;stroke:#263238;stroke-linecap:round;stroke-linejoin:round;stroke-miterlimit:10;" d="M367.114,328.231
					c0,0-3.984,5.091-7.968,6.419"/>
				<path style="fill:none;stroke:#263238;stroke-linecap:round;stroke-linejoin:round;stroke-miterlimit:10;" d="M367.556,338.855
					c0,0-3.541,4.427-7.747,5.533"/>
				<path style="fill:none;stroke:#263238;stroke-linecap:round;stroke-linejoin:round;stroke-miterlimit:10;" d="M361.138,310.746
					c0,0-4.205,3.32-6.861,4.648"/>
			</g>
		</g>
		<g>
			<path style="fill:#92E3A9;stroke:#263238;stroke-linecap:round;stroke-linejoin:round;stroke-miterlimit:10;" d="
				M339.837,314.827c0,0,3.682,3.836,4.449,11.047c0.767,7.211,1.074,17.491,1.074,25.93c0,8.439-2.148,18.872-2.148,18.872
				s-9.052-4.756-10.587-6.444c-1.534-1.688-0.767-22.861-0.767-25.009c0-2.148,1.227-7.978-1.841-13.502s-6.444-8.746-7.365-10.126
				c-0.921-1.381-2.302-1.995,0.614-3.836c2.915-1.841,6.444-4.603,7.671-5.677C332.166,305.007,339.837,314.827,339.837,314.827z"
				/>
			<g>
				<path style="fill:none;stroke:#263238;stroke-linecap:round;stroke-linejoin:round;stroke-miterlimit:10;" d="M333.471,334.871
					c0,0,6.64,1.107,9.739,0.443"/>
				<path style="fill:none;stroke:#263238;stroke-linecap:round;stroke-linejoin:round;stroke-miterlimit:10;" d="M333.249,344.61
					c0,0,5.091,1.549,9.96,1.328"/>
				<path style="fill:none;stroke:#263238;stroke-linecap:round;stroke-linejoin:round;stroke-miterlimit:10;" d="M333.028,354.128
					c0,0,6.728,2.343,11.067,1.771"/>
				<path style="fill:none;stroke:#263238;stroke-linecap:round;stroke-linejoin:round;stroke-miterlimit:10;" d="M329.404,323.725
					c0,0,9.379,0.522,12.256-0.585"/>
			</g>
			<path style="fill:#92E3A9;stroke:#263238;stroke-linecap:round;stroke-linejoin:round;stroke-miterlimit:10;" d="
				M330.171,305.007c0,0-1.534,6.751-0.307,7.825c1.227,1.074,9.973,1.995,9.973,1.995s-6.461-6.776-7.066-8.758
				C332.166,304.086,330.938,304.393,330.171,305.007z"/>
		</g>
		<g>
			<path style="fill:#FFFFFF;stroke:#263238;stroke-linecap:round;stroke-linejoin:round;stroke-miterlimit:10;" d="
				M332.771,306.068c0,0,1.236,2.161,4.611,3.848c3.375,1.688,8.285,0.767,8.592-3.375c0.307-4.143-1.688-9.666-2.915-12.274
				c-1.227-2.608-2.148-3.989-2.148-3.989s-1.841,0.921-1.995,3.836c-0.154,2.915-1.841,6.444-3.529,8.285
				c-1.688,1.841-3.222,2.608-3.222,2.608L332.771,306.068z"/>
			<path style="fill:#263238;stroke:#263238;stroke-linecap:round;stroke-linejoin:round;stroke-miterlimit:10;" d="
				M338.372,302.896l-2.414,5.795l-3.186-2.622C332.771,306.068,337.203,304.576,338.372,302.896z"/>
			<g>
				<path style="fill:#263238;stroke:#263238;stroke-linecap:round;stroke-linejoin:round;stroke-miterlimit:10;" d="
					M318.594,276.054c0,0-4.598,5.237-4.853,9.068c-0.255,3.832,3.321,3.065,3.832,4.726c0.511,1.66,1.857,6.135,1.939,7.31
					c0.082,1.175-1.514,9.924,0.374,11.111c1.888,1.187,3.151,1.377,3.418,2.011c0.266,0.634-0.107,2.438,0.428,3.345
					c0.535,0.907,1.259,0.731,1.709,1.005c0.45,0.274-0.101,1.535,2.149,2.724c2.25,1.19,4.694,0.394,4.788-0.238
					c0.095-0.632-1.784-3.264-1.055-4.162c0.729-0.898,2.085-1.16,1.101-2.521c-0.984-1.362-1.892-0.645-1.432-1.816
					s1.005-1.709,1.103-2.702s-0.26-1.537-1.426-2.719c-1.166-1.182,0.724-0.176-1.067-2.356c-1.791-2.18-2.151-2.363-3.231-2.913
					c-1.08-0.549-1.98-0.917-1.98-0.917s-4.135-7.163-4.262-8.568c-0.128-1.405,13.794-3.704,15.199-2.938
					c1.405,0.766,6.514,5.492,7.408,4.726c0.894-0.766,0.766-4.47-1.277-10.856c-2.044-6.386-8.685-8.046-14.943-7.919
					C320.255,271.584,318.594,276.054,318.594,276.054z"/>
				<path style="fill:#FFFFFF;stroke:#263238;stroke-linecap:round;stroke-linejoin:round;stroke-miterlimit:10;" d="
					M319.233,285.761c1.47-1.47,4.853-3.449,9.068-3.576c4.215-0.128,9.196,3.704,9.196,3.704s0,0,0.639-0.766
					s3.065-1.15,4.215,2.299c1.15,3.448-1.66,4.726-1.66,4.726l-0.255,1.788c0,0,0.766,4.215-0.894,7.28
					c-1.66,3.065-4.215,4.342-6.769,4.853c-2.554,0.511-4.598-1.149-7.152-3.448c-2.555-2.299-6.514-9.196-8.047-12.772
					c-0.227-0.53-0.387-1.082-0.494-1.639C317.078,288.209,317.445,287.549,319.233,285.761z"/>
				<path style="fill:#263238;stroke:#263238;stroke-linecap:round;stroke-linejoin:round;stroke-miterlimit:10;" d="
					M342.733,290.231c0,0-1.533,3.449-1.149,6.514c0.383,3.065,3.065,6.386,2.554,8.685c-0.511,2.299-1.15,3.065-0.383,4.215
					s3.704,2.682,5.109,1.66c1.405-1.022,2.044-2.427,2.044-2.427s-2.299,1.66-1.533-0.511c0.766-2.171,2.938-1.15,3.193-3.704
					c0.255-2.555-1.916-4.853-1.533-6.003c0.383-1.15,2.171-3.321,1.533-5.747c-0.639-2.427-1.533-3.065-4.342-5.747
					c-2.81-2.682-2.81-3.321-3.448-4.726c-0.639-1.405-3.193-1.533-3.193-1.533S342.733,288.315,342.733,290.231z"/>
				<path style="fill:none;stroke:#263238;stroke-linecap:round;stroke-linejoin:round;stroke-miterlimit:10;" d="M325.874,299.555
					c0,0,0.894,1.022,2.171-0.128"/>
				<path style="fill:none;stroke:#263238;stroke-linecap:round;stroke-linejoin:round;stroke-miterlimit:10;" d="M327.918,301.854
					c0,0,3.704,0.383,4.598-2.427"/>
				<path style="fill:none;stroke:#263238;stroke-linecap:round;stroke-linejoin:round;stroke-miterlimit:10;" d="M326.13,292.019
					c0,0,1.66-1.405,4.087-1.533"/>
				<path style="fill:none;stroke:#263238;stroke-linecap:round;stroke-linejoin:round;stroke-miterlimit:10;" d="M323.192,293.68
					c0,0-1.788-0.639-2.938,0.894"/>
				<path style="fill:none;stroke:#263238;stroke-linecap:round;stroke-linejoin:round;stroke-miterlimit:10;" d="M328.173,293.68
					c0,0,1.916,0.766,3.065-1.022"/>
				<path style="fill:none;stroke:#263238;stroke-linecap:round;stroke-linejoin:round;stroke-miterlimit:10;" d="M322.043,296.106
					c0,0,1.277,0.128,2.043-0.766"/>
				<path style="fill:#263238;stroke:#263238;stroke-linecap:round;stroke-linejoin:round;stroke-miterlimit:10;" d="
					M321.659,283.845c0,0,2.171-0.766,3.576,0s4.726,3.193,7.536,3.448c2.81,0.255,5.364-0.511,5.364-2.171s6.258-1.533-3.448-4.342
					C324.98,277.97,322.043,282.44,321.659,283.845z"/>
			</g>
		</g>
		<g>
			<path style="fill:#FFFFFF;stroke:#263238;stroke-linecap:round;stroke-linejoin:round;stroke-miterlimit:10;" d="
				M246.898,419.236c-0.703,0-1.385-0.371-1.75-1.028c-0.537-0.966-0.189-2.184,0.776-2.72l165.46-91.956
				c0.967-0.537,2.184-0.188,2.72,0.776c0.537,0.966,0.189,2.184-0.776,2.72l-165.46,91.956
				C247.56,419.155,247.226,419.236,246.898,419.236z"/>
		</g>
		<g>
			<path style="fill:#FFFFFF;stroke:#263238;stroke-linecap:round;stroke-linejoin:round;stroke-miterlimit:10;" d="
				M368.903,340.514c0,0-2.959,3.178-3.178,4.274c-0.219,1.096-0.877,4.603-0.877,4.603l1.315,0.986c0,0-0.986,4.165-0.767,4.493
				s0.877,0.438,1.425,0.438c0.548,0,2.082-1.315,2.082-1.315s3.836-0.109,4.493-1.973c0.658-1.863,0.438-5.589,0.438-5.589v-5.699
				L368.903,340.514z"/>
			<path style="fill:#FFFFFF;stroke:#263238;stroke-linecap:round;stroke-linejoin:round;stroke-miterlimit:10;" d="M359.697,295.47
				c0,0,15.563,11.836,17.097,16.33c1.534,4.493-0.329,31.126-0.329,31.126l-8.22-1.096l0.548-13.7l-4.165-13.919
				c0,0-2.301-5.151-2.63-6.466c-0.329-1.315-0.658-4.384-0.767-5.261S359.697,295.47,359.697,295.47z"/>
			<path style="fill:none;stroke:#263238;stroke-linecap:round;stroke-linejoin:round;stroke-miterlimit:10;" d="M367.697,323.088
				c0,0,0.658-3.946,3.178-6.795"/>
		</g>
		<g>
			<path style="fill:#FFFFFF;stroke:#263238;stroke-linecap:round;stroke-linejoin:round;stroke-miterlimit:10;" d="
				M321.557,361.556c0,0-1.096,6.466-1.206,7.014c-0.11,0.548-4.274,5.48-4.932,6.466c-0.658,0.986-2.63,3.507-2.63,3.507
				l9.425-4.713c0,0-0.438,2.63-0.438,3.617c0,0.986,0.219,3.288,1.206,2.302s1.315-3.178,1.863-6.357
				c0.548-3.178,1.206-12.165,1.206-12.165L321.557,361.556z"/>
			<path style="fill:#FFFFFF;stroke:#263238;stroke-linecap:round;stroke-linejoin:round;stroke-miterlimit:10;" d="
				M321.733,314.213c0,0-1.841,3.222-1.688,5.83c0.154,2.608-0.153,43.421-0.153,43.421l6.444-0.614l5.677-29.152
				c0,0,0.153-4.603-2.608-9.973C326.642,318.355,321.733,314.213,321.733,314.213z"/>
		</g>
		<path style="fill:#92E3A9;stroke:#263238;stroke-linecap:round;stroke-linejoin:round;stroke-miterlimit:10;" d="M249.585,413.6
			l1.921,3.33c0,0-15.37,8.069-15.882,9.222c-0.512,1.153-5.508-1.153-5.508-1.153l15.808-9.512L249.585,413.6z"/>
		<g>
			<g>
				<path style="fill:#263238;" d="M210.008,435.875c-0.19,0-0.372-0.108-0.456-0.293c-0.114-0.251-0.004-0.547,0.248-0.662
					c7.2-3.284,19.948-10.288,20.075-10.358c0.243-0.134,0.546-0.044,0.679,0.197c0.133,0.242,0.045,0.546-0.197,0.68
					c-0.128,0.07-12.909,7.092-20.143,10.392C210.147,435.861,210.077,435.875,210.008,435.875z"/>
			</g>
			<g>
				<path style="fill:#263238;" d="M208.579,438.487c-0.126,0-0.251-0.045-0.345-0.138c-0.19-0.188-0.211-0.48-0.032-0.68
					c0.765-0.854,19.156-10.539,22.835-12.472c0.245-0.128,0.546-0.034,0.675,0.21c0.129,0.244,0.035,0.547-0.21,0.675
					c-8.661,4.551-21.818,11.572-22.566,12.266C208.836,438.44,208.707,438.487,208.579,438.487z"/>
			</g>
			<g>
				<path style="fill:#263238;" d="M211.801,440.87c-0.159,0-0.316-0.076-0.413-0.217c-0.156-0.228-0.099-0.539,0.129-0.695
					l10.793-7.416l-12.182,6.98c-0.238,0.137-0.545,0.055-0.682-0.185c-0.138-0.24-0.055-0.546,0.185-0.683l22.799-13.064
					l0.532,0.846l-20.878,14.346C211.997,440.842,211.898,440.87,211.801,440.87z"/>
			</g>
			<g>
				<path style="fill:#263238;" d="M215.003,440.998c-0.152,0-0.302-0.069-0.4-0.199c-0.165-0.221-0.121-0.534,0.1-0.7
					l18.572-13.961c0.222-0.168,0.535-0.12,0.7,0.099c0.165,0.221,0.121,0.534-0.1,0.7l-18.572,13.961
					C215.213,440.966,215.107,440.998,215.003,440.998z"/>
			</g>
			<g>
				<path style="fill:#263238;" d="M221.534,442.023c-0.11,0-0.22-0.036-0.313-0.11c-0.215-0.173-0.25-0.487-0.077-0.703
					l7.687-9.567l-10.03,9.351c-0.202,0.185-0.518,0.176-0.707-0.025c-0.188-0.202-0.177-0.519,0.025-0.707l15.114-14.089l0.73,0.68
					l-12.04,14.985C221.825,441.959,221.68,442.023,221.534,442.023z"/>
			</g>
			<g>
				<path style="fill:#263238;" d="M225.377,441.511c-0.084,0-0.168-0.021-0.246-0.064c-0.24-0.137-0.325-0.441-0.188-0.682
					l8.197-14.474c0.135-0.241,0.439-0.326,0.682-0.189c0.24,0.137,0.325,0.441,0.188,0.682l-8.197,14.474
					C225.72,441.42,225.551,441.511,225.377,441.511z"/>
			</g>
			<g>
				<path style="fill:#263238;" d="M228.195,442.279c-0.066,0-0.133-0.013-0.197-0.04c-0.254-0.109-0.372-0.403-0.263-0.657
					l6.532-15.242c0.109-0.254,0.405-0.371,0.656-0.263c0.254,0.109,0.372,0.403,0.263,0.657l-6.532,15.242
					C228.573,442.166,228.389,442.279,228.195,442.279z"/>
			</g>
		</g>
		<g>
			<path style="fill:#92E3A9;stroke:#263238;stroke-linecap:round;stroke-linejoin:round;stroke-miterlimit:10;" d="M232.55,434.069
				c-0.017,0-0.034,0-0.051-0.001c-7.816-0.392-12.517-2.829-12.713-2.933c-0.488-0.258-0.674-0.861-0.418-1.35
				c0.256-0.488,0.86-0.678,1.35-0.42c0.044,0.023,4.54,2.337,11.88,2.704c0.552,0.028,0.977,0.497,0.949,1.049
				C233.522,433.654,233.08,434.069,232.55,434.069z"/>
		</g>
	</g>
</g>
<g id="Character_1">
	<g>
		<g>
			<path style="fill:#FFFFFF;stroke:#263238;stroke-linecap:round;stroke-linejoin:round;stroke-miterlimit:10;" d="
				M137.137,299.505l-3.769,40.599l6.51,1.199c0,0,7.366-25.353,7.88-29.122c0.514-3.769,0.343-12.677,0.343-12.677H137.137z"/>
			<g>
				<path style="fill:#FFFFFF;stroke:#263238;stroke-linecap:round;stroke-linejoin:round;stroke-miterlimit:10;" d="
					M134.054,337.192l-2.57,5.824c0,0,0.685,3.769,0.685,8.051c0,4.283-1.028,12.677-1.028,12.677s3.084-1.028,4.283-3.94
					c1.199-2.912,5.482-19.871,5.482-19.871S137.651,335.651,134.054,337.192z"/>
				<path style="fill:none;stroke:#263238;stroke-linecap:round;stroke-linejoin:round;stroke-miterlimit:10;" d="M132.683,353.466
					c0,0,3.426-2.57,4.283-5.653"/>
			</g>
		</g>
		<g>
			<path style="fill:#FFFFFF;stroke:#263238;stroke-linecap:round;stroke-linejoin:round;stroke-miterlimit:10;" d="M59.022,429.183
				l-0.857,5.653c0,0-3.426,6.681-3.255,7.88c0.171,1.199,5.139,1.199,7.024,1.199c1.884,0,5.824-0.171,6.338-0.514
				c0.514-0.343,1.713-0.514,1.713-2.569c0-2.056-0.343-11.306-0.343-11.306L59.022,429.183z"/>
			<path style="fill:#FFFFFF;stroke:#263238;stroke-linecap:round;stroke-linejoin:round;stroke-miterlimit:10;" d="M115.039,431.41
				l7.709,5.139c0,0,4.968,1.884,5.31,2.57c0.343,0.685-0.343,2.57-1.028,2.912c-0.685,0.343-10.964-0.343-12.677-0.685
				c-1.713-0.343-10.964-1.028-11.991-1.028c-1.028,0-2.227-0.171-2.227-0.171s-0.514-4.283,0.514-7.366
				C101.677,429.697,112.64,427.984,115.039,431.41z"/>
			<path style="fill:#263238;stroke:#263238;stroke-linecap:round;stroke-linejoin:round;stroke-miterlimit:10;" d="M71.527,319.376
				L59.364,421.989l-1.884,1.884l1.542,5.311l11.82,1.542c0,0,2.056-5.139,2.227-7.023c0.171-1.884-0.171-5.653-0.171-6.167
				c0-0.514,23.298-77.601,23.298-77.601l5.996,47.623l-1.713,46.767c0,0,2.741-1.199,5.482-2.227
				c2.741-1.028,9.079-0.685,9.079-0.685s-0.343-5.482-0.171-6.681c0.171-1.199-1.199-5.653-1.199-5.653l8.223-41.456l-1.713-47.452
				L71.527,319.376z"/>
		</g>
		<g>
			<path style="fill:#92E3A9;stroke:#263238;stroke-linecap:round;stroke-linejoin:round;stroke-miterlimit:10;" d="
				M123.062,242.229c0,0-24.322,3.01-26.916,6.367c-2.594,3.357-12.817,42.725-12.817,42.725l-14.276,29.551
				c0,0,22.465,11.926,33.558,13.312c11.094,1.387,18.582-0.832,18.582-0.832l4.437-26.348l11.371-19.137l-1.387,13.59h14.144
				c0,0,1.109-23.019,0.277-29.121c-0.832-6.102-5.269-17.195-8.043-19.414C139.221,250.704,125.208,242.63,123.062,242.229z"/>
			<polyline style="fill:none;stroke:#263238;stroke-linecap:round;stroke-linejoin:round;stroke-miterlimit:10;" points="
				142.167,277.097 137.002,287.868 142.557,280.996 			"/>
		</g>
		<g>
			<g>
				<path style="fill:#949494;stroke:#263238;stroke-linecap:round;stroke-linejoin:round;stroke-miterlimit:10;" d="
					M127.411,368.435c-0.352,0-0.707-0.093-1.03-0.287c-0.946-0.57-1.251-1.799-0.681-2.745c2.157-3.579,3.297-7.692,3.297-11.897
					c0-12.73-10.356-23.087-23.086-23.087c-12.73,0-23.087,10.357-23.087,23.087c0,0.6,0.023,1.207,0.069,1.804
					c0.085,1.101-0.739,2.063-1.841,2.147c-1.091,0.085-2.063-0.738-2.147-1.841c-0.054-0.698-0.081-1.408-0.081-2.11
					c0-14.935,12.151-27.087,27.087-27.087c14.936,0,27.086,12.151,27.086,27.087c0,4.932-1.339,9.759-3.871,13.961
					C128.751,368.09,128.089,368.435,127.411,368.435z"/>
			</g>
			<g>
				<g>
					<g>
						<g>
							<path style="fill:none;stroke:#263238;stroke-linecap:round;stroke-linejoin:round;" d="M157.415,402.739
								c0,0,0.533,0.733,1.37,2.086"/>
							<path style="fill:none;stroke:#263238;stroke-linecap:round;stroke-linejoin:round;stroke-dasharray:5.406,5.406;" d="
								M161.433,409.535c2.221,4.338,4.829,10.506,6.336,17.77"/>
							<path style="fill:none;stroke:#263238;stroke-linecap:round;stroke-linejoin:round;" d="M168.263,429.972
								c0.132,0.814,0.249,1.639,0.35,2.476"/>
						</g>
					</g>
					<g>
						<g>
							<path style="fill:none;stroke:#263238;stroke-linecap:round;stroke-linejoin:round;" d="M163.357,398.397
								c0,0,0.681,0.622,1.691,1.833"/>
							<path style="fill:none;stroke:#263238;stroke-linecap:round;stroke-linejoin:round;stroke-dasharray:3.7085,3.7085;" d="
								M167.257,403.207c0.892,1.346,1.835,2.967,2.714,4.851"/>
							<path style="fill:none;stroke:#263238;stroke-linecap:round;stroke-linejoin:round;" d="M170.715,409.762
								c0.305,0.747,0.596,1.529,0.869,2.346"/>
						</g>
					</g>
					<g>
						<g>
							<path style="fill:none;stroke:#263238;stroke-linecap:round;stroke-linejoin:round;" d="M166.328,390.627
								c0,0,0.828,0.483,2.001,1.489"/>
							<path style="fill:none;stroke:#263238;stroke-linecap:round;stroke-linejoin:round;stroke-dasharray:2.7917,2.7917;" d="
								M170.324,394.063c0.832,0.921,1.7,2.034,2.502,3.347"/>
							<path style="fill:none;stroke:#263238;stroke-linecap:round;stroke-linejoin:round;" d="M173.519,398.633
								c0.373,0.709,0.722,1.468,1.036,2.278"/>
						</g>
					</g>
				</g>
				<path style="fill:#949494;stroke:#263238;stroke-linecap:round;stroke-linejoin:round;stroke-miterlimit:10;" d="
					M122.27,372.401l7.401,10.784l34.889,5.286c0,0-0.691,4.604-2.94,7.978c-2.048,3.073-7.421,5.132-7.421,5.132l-4.018-10.573
					l-45.251-4.44L122.27,372.401z"/>
				<path style="fill:#263238;stroke:#263238;stroke-linecap:round;stroke-linejoin:round;stroke-miterlimit:10;" d="
					M143.317,390.335l6.865,0.674l4.018,10.573c0,0,5.372-2.06,7.421-5.132c2.249-3.373,2.94-7.978,2.94-7.978l-19.976-3.027
					L143.317,390.335z"/>
			</g>
			<path style="fill:#949494;stroke:#263238;stroke-linecap:round;stroke-linejoin:round;stroke-miterlimit:10;" d="
				M103.467,334.562l-28.301,20.652c-0.844,0.616-1.028,1.801-0.41,2.644l23.326,31.809c0.625,0.853,1.829,1.026,2.67,0.385
				l29.076-22.189c0.842-0.642,0.992-1.851,0.332-2.679l-24.101-30.271C105.429,334.119,104.285,333.965,103.467,334.562z"/>
		</g>
		<g>
			<path style="fill:#FFFFFF;stroke:#263238;stroke-linecap:round;stroke-linejoin:round;stroke-miterlimit:10;" d="
				M159.727,236.646c0,0-2.047,5.77-2.792,7.258c-0.744,1.489-4.467,1.489-4.839,3.722c-0.372,2.233,0.372,3.908-0.372,4.653
				c-0.744,0.744-2.978,0.558-2.978,0.558s-5.025,4.281-6.7,5.025c-1.675,0.745-5.956-1.861-5.956-1.861s1.861,2.233-1.303,3.164
				c-3.164,0.931-6.886,0.558-10.423-6.328c-3.536-6.886-1.303-10.609-1.303-10.609s3.908-0.186,4.839-1.117
				s2.978-4.653,2.978-4.653s2.42-7.445,6.328-8.747c3.908-1.303,15.82,0.931,18.984,1.861
				C159.355,230.504,159.727,236.646,159.727,236.646z"/>
			<path style="fill:#263238;stroke:#263238;stroke-linecap:round;stroke-linejoin:round;stroke-miterlimit:10;" d="
				M134.154,239.798c0,0-0.67-0.36-1.042-2.594s1.117-7.072,4.839-5.583c3.722,1.489,1.117,4.281,1.117,4.281l-0.931,2.233
				c0,0,3.164,1.861,3.164,0.558c0-1.303,0.186-3.164,0.744-3.164c0.558,0,1.861,0.931,2.606-0.372
				c0.744-1.303,5.77-2.606,5.77-2.606l-3.536,4.281c0,0-0.186,0.372,4.839,0c5.025-0.372,6.886-2.792,6.886-2.792l-5.956,5.025
				c0,0,3.35-0.186,5.77-1.303c2.419-1.117,3.164-1.303,3.536-5.956c0.372-4.653-3.908-9.678-8.561-11.539
				c-4.653-1.861-12.284-3.722-16.937-0.186c-4.653,3.536-6.886,10.05-6.886,13.4c0,3.35-1.117,4.095,0.186,5.211
				C131.065,239.81,131.921,240.356,134.154,239.798z"/>
			<path style="fill:none;stroke:#263238;stroke-linecap:round;stroke-linejoin:round;stroke-miterlimit:10;" d="M144.093,249.86
				c0,0-0.252,2.423,1.57,3.66"/>
			<path style="fill:none;stroke:#263238;stroke-linecap:round;stroke-linejoin:round;stroke-miterlimit:10;" d="M149.677,243.16
				c0,0,2.792-0.745,3.908,1.489"/>
			<path style="fill:#263238;stroke:#263238;stroke-linecap:round;stroke-linejoin:round;stroke-miterlimit:10;" d="M136.09,256.002
				c0,0-1.644-2.828-2.407-5.422c-0.763-2.594-0.458-4.578-0.458-4.578s-3.815,9.308-4.425,9.46c-0.61,0.153-3.51-0.916-3.51-0.916
				s2.405,5.147,5.951,4.883c3.546-0.264,4.578-0.458,5.035-1.068C136.735,257.751,136.09,256.002,136.09,256.002z"/>
		</g>
		<g>
			<path style="fill:#FFFFFF;stroke:#263238;stroke-linecap:round;stroke-linejoin:round;stroke-miterlimit:10;" d="M85.438,271.249
				c0,0-4.679,20.47-4.094,20.859c0.585,0.39,22.419,28.462,22.419,28.462s2.534,7.798,2.924,8.968c0.39,1.17,0,3.509,1.365,3.899
				s5.069,1.949,7.993,1.755c2.924-0.195,3.314-1.755,3.314-1.755s0.39,2.534,0.975,3.509c0.585,0.975,2.144,1.17,2.534-0.78
				c0.39-1.949,0.78-5.264,0.78-5.264s-2.144-6.043-3.314-8.188c-1.17-2.145-8.578-7.018-8.578-7.018l-17.74-27.488l4.094-10.332
				L85.438,271.249z"/>
			<path style="fill:#FFFFFF;stroke:#263238;stroke-linecap:round;stroke-linejoin:round;stroke-miterlimit:10;" d="
				M118.065,320.342l-1.715-1.378c-2.257-1.728-4.595-3.267-4.595-3.267l-0.643-0.997c-2.347,1.618-5.649,3.886-7.784,5.313
				c0.273,0.351,0.434,0.558,0.434,0.558s2.534,7.798,2.924,8.968c0.39,1.17,0,3.509,1.365,3.899
				c1.365,0.39,5.069,1.949,7.993,1.755c2.924-0.195,3.314-1.755,3.314-1.755s0.39,2.534,0.975,3.509
				c0.585,0.975,2.144,1.17,2.534-0.78c0.39-1.95,0.78-5.264,0.78-5.264s-2.144-6.043-3.314-8.188
				C119.994,322.093,119.122,321.239,118.065,320.342z"/>
			<path style="fill:#92E3A9;stroke:#263238;stroke-linecap:round;stroke-linejoin:round;stroke-miterlimit:10;" d="
				M104.542,245.906c0,0-8.578-0.39-12.087,3.509c-3.509,3.899-9.747,22.809-9.747,22.809l15.986,8.773l6.823-21.444"/>
		</g>
		<path style="fill:none;stroke:#263238;stroke-linecap:round;stroke-linejoin:round;stroke-miterlimit:10;" d="M148.527,245.451
			c0,0,0.911,1.952,2.798,1.822"/>
	</g>
</g>
</svg>
